<svg width="960" height="720" viewBox="0 0 960 720" fill="none" xmlns="http://www.w3.org/2000/svg">
  <rect width="960" height="720" rx="28" fill="#ECFDF3"/>
  <rect x="48" y="48" width="864" height="624" rx="22" fill="#FFFFFF" stroke="#D1FAE5" stroke-width="2"/>
  <rect x="88" y="88" width="200" height="16" rx="8" fill="#94A3B8"/>
  <rect x="88" y="120" width="120" height="10" rx="5" fill="#CBD5E1"/>
  <rect x="88" y="172" width="784" height="360" rx="24" fill="#FFFFFF" stroke="#D1FAE5"/>
  <rect x="120" y="206" width="180" height="14" rx="7" fill="#94A3B8"/>
  <rect x="120" y="232" width="220" height="26" rx="13" fill="#0F172A"/>
  <rect x="120" y="270" width="320" height="12" rx="6" fill="#94A3B8"/>
  <rect x="120" y="300" width="280" height="12" rx="6" fill="#94A3B8"/>
  <rect x="120" y="340" width="220" height="18" rx="9" fill="#DCFCE7"/>
  <rect x="120" y="372" width="160" height="12" rx="6" fill="#94A3B8"/>
  <rect x="120" y="424" width="160" height="38" rx="19" fill="#DCFCE7"/>
  <rect x="300" y="424" width="160" height="38" rx="19" fill="#DCFCE7"/>
  <rect x="480" y="424" width="160" height="38" rx="19" fill="#DCFCE7"/>
  <rect x="660" y="424" width="160" height="38" rx="19" fill="#DCFCE7"/>
  <rect x="88" y="564" width="280" height="14" rx="7" fill="#94A3B8"/>
  <rect x="88" y="590" width="220" height="12" rx="6" fill="#CBD5E1"/>
</svg>
