<svg width="960" height="720" viewBox="0 0 960 720" fill="none" xmlns="http://www.w3.org/2000/svg">
  <rect width="960" height="720" rx="28" fill="#ECFDF3"/>
  <rect x="48" y="48" width="864" height="624" rx="22" fill="#FFFFFF" stroke="#D1FAE5" stroke-width="2"/>
  <rect x="88" y="88" width="160" height="24" rx="12" fill="#DCFCE7"/>
  <rect x="88" y="128" width="280" height="16" rx="8" fill="#E2E8F0"/>
  <rect x="88" y="176" width="784" height="10" rx="5" fill="#E2E8F0"/>
  <rect x="88" y="196" width="744" height="10" rx="5" fill="#E2E8F0"/>
  <rect x="88" y="216" width="704" height="10" rx="5" fill="#E2E8F0"/>
  <rect x="88" y="236" width="620" height="10" rx="5" fill="#E2E8F0"/>
  <rect x="88" y="268" width="784" height="10" rx="5" fill="#E2E8F0"/>
  <rect x="88" y="288" width="680" height="10" rx="5" fill="#E2E8F0"/>
  <rect x="88" y="308" width="748" height="10" rx="5" fill="#E2E8F0"/>
  <rect x="88" y="328" width="620" height="10" rx="5" fill="#E2E8F0"/>
  <rect x="88" y="360" width="240" height="120" rx="18" fill="#F0FDF4" stroke="#A7F3D0"/>
  <rect x="108" y="386" width="120" height="10" rx="5" fill="#94A3B8"/>
  <rect x="108" y="408" width="120" height="18" rx="9" fill="#0F172A"/>
  <rect x="108" y="438" width="180" height="10" rx="5" fill="#94A3B8"/>
  <rect x="352" y="360" width="520" height="120" rx="18" fill="#FFFFFF" stroke="#D1FAE5"/>
  <rect x="376" y="384" width="200" height="12" rx="6" fill="#0F172A"/>
  <rect x="376" y="408" width="360" height="10" rx="5" fill="#94A3B8"/>
  <rect x="376" y="430" width="320" height="10" rx="5" fill="#94A3B8"/>
  <rect x="376" y="452" width="260" height="10" rx="5" fill="#94A3B8"/>
  <rect x="88" y="512" width="200" height="18" rx="9" fill="#DCFCE7"/>
  <rect x="88" y="540" width="784" height="10" rx="5" fill="#E2E8F0"/>
  <rect x="88" y="560" width="660" height="10" rx="5" fill="#E2E8F0"/>
  <rect x="88" y="580" width="740" height="10" rx="5" fill="#E2E8F0"/>
</svg>
